<?xml version="1.0" standalone="no"?>
<!DOCTYPE svg PUBLIC "-//W3C//DTD SVG 20010904//EN"
 "http://www.w3.org/TR/2001/REC-SVG-20010904/DTD/svg10.dtd">
<svg version="1.0" xmlns="http://www.w3.org/2000/svg"
 width="16.000000pt" height="16.000000pt" viewBox="0 0 16.000000 16.000000"
 preserveAspectRatio="xMidYMid meet">
<metadata>
Created by potrace 1.11, written by Peter Selinger 2001-2013
</metadata>
<g transform="translate(0.000000,16.000000) scale(0.006400,-0.006400)"
fill="#000000" stroke="none">
<path d="M1130 2229 c-103 -17 -127 -22 -188 -41 -325 -100 -587 -363 -686
-688 -37 -123 -45 -188 -42 -340 6 -241 83 -449 233 -629 76 -91 98 -106 141
-95 42 10 68 50 58 90 -4 13 -31 52 -62 86 -216 242 -278 603 -157 906 106
266 335 466 613 536 134 34 324 30 453 -8 317 -94 557 -352 623 -670 17 -79
22 -233 11 -315 -12 -87 -67 -237 -116 -320 -42 -69 -63 -96 -128 -168 -48
-51 -14 -133 54 -133 38 0 72 32 154 142 88 119 149 258 185 423 14 63 12 300
-2 375 -60 316 -252 579 -534 732 -62 34 -184 82 -233 92 -104 21 -146 27
-233 29 -54 2 -119 0 -144 -4z"/>
<path d="M963 1936 c-147 -55 -310 -190 -389 -323 -45 -75 -91 -186 -99 -236
-3 -18 -9 -55 -13 -83 -28 -173 24 -391 129 -546 115 -169 323 -307 505 -333
22 -4 47 -9 57 -11 24 -7 127 -6 202 2 161 17 336 103 456 225 184 185 264
433 223 689 -20 125 -39 154 -95 148 -20 -2 -39 -12 -51 -29 -18 -24 -19 -31
-7 -85 7 -33 14 -66 16 -74 5 -24 4 -142 -1 -179 -28 -187 -164 -385 -326
-474 -143 -78 -331 -103 -480 -64 -181 49 -339 175 -419 337 -126 257 -83 544
114 745 74 75 129 113 220 150 39 16 79 36 89 46 27 25 25 77 -3 101 -30 23
-52 22 -128 -6z"/>
<path d="M1259 1746 c-2 -2 -34 -7 -71 -10 -79 -7 -163 -36 -233 -81 -58 -37
-134 -111 -145 -140 -10 -28 8 -73 33 -82 38 -12 61 -3 110 47 296 295 780 36
703 -376 -22 -113 -119 -234 -233 -286 -58 -27 -81 -32 -158 -34 -101 -3 -163
14 -244 66 -66 42 -105 40 -129 -7 -30 -55 55 -130 198 -173 364 -111 732 178
707 555 -7 98 -24 155 -70 237 -83 148 -239 255 -400 274 -28 4 -55 8 -58 10
-3 2 -8 2 -10 0z"/>
<path d="M1153 1492 c-68 -24 -111 -55 -152 -108 -95 -125 -84 -299 26 -411
151 -154 408 -113 503 81 80 162 14 349 -148 424 -73 33 -160 38 -229 14z
m199 -140 c50 -29 81 -85 84 -151 3 -50 -1 -65 -25 -103 -35 -55 -84 -86 -142
-91 -61 -5 -99 7 -141 45 -85 75 -90 192 -13 271 63 64 158 76 237 29z"/>
</g>
</svg>
