<svg xmlns="http://www.w3.org/2000/svg" viewBox="0 0 513.34 513.34"><defs><style>.cls-1{fill:#69b878;}.cls-2{fill:#fdfdfd;}.cls-3{fill:#fbfdfc;}</style></defs><title>Asset 10</title><g id="Layer_2" data-name="Layer 2"><g id="Layer_4" data-name="Layer 4"><path class="cls-1" d="M513.24,1.25q0,253.75.09,507.5c0,3.75-.84,4.6-4.59,4.59q-253.75-.16-507.5-.09,0-252.68,0-505.36C1.26.3.3,1.27,7.88,1.26Q260.56,1.23,513.24,1.25Zm-330.83,395,.74,1.32c1.43,2.91,4.18,2.27,6.55,2.27,33.17.06,66.33.21,99.5,0,10.42-.08,20.94-.3,31.05-3.54,19.73-3.16,37.63-11,54-22.1,37.14-25.17,59.15-60,63.67-104.75,3.41-33.76-5.39-64.93-25.42-92.28-30.93-42.22-73.55-62.1-125.4-62.75-29.16-.37-58.32-.09-87.48-.09-3.83,0-7.66.12-11.49.13-4.06,0-6.17,1.69-6,6.05s0,9,0,13.5c0,7,.34,7.37,7.38,7.38q48,0,96,.09c26.22.06,50.77,6.19,72.83,20.76,42.54,28.09,61.85,76.9,49,123.59-14,51.09-63.42,87.27-118.38,86.93-30.16-.18-60.32,0-90.48,0-3.66,0-7.33-.19-11-.08-3.49.11-5.55,1.71-5.41,5.6.19,5.32.15,10.66.21,16Q182.41,395.26,182.41,396.27Zm-91.07-4c.22,5.19,3.58,7.48,8.13,7.57q19.21.36,38.43,0c4.61-.08,7.79-2.53,8.21-7.57.06-1.5.19-3,.19-4.49q0-79.21,0-158.42c0-8-2.67-10.66-10.88-10.7q-16.49-.08-33,0c-8.92,0-11.32,2.43-11.32,11.21q0,74,0,147.93C91.13,382.59,91.26,387.42,91.34,392.24Zm165.3-33.89c10.66,0,21.33-.09,32,0a104.62,104.62,0,0,0,26.2-3.16c49.56-12.17,85.54-59.59,77.32-111.83-6.5-41.33-31.27-68-70.1-82a95.08,95.08,0,0,0-32.86-5.31q-36,.15-72,0c-3.9,0-5.63,1.2-5.14,5.15a25.31,25.31,0,0,1,0,3c0,6.52,0,6.57,6.7,6.57,22.83,0,45.65.1,68.48,0a95.41,95.41,0,0,1,46.43,11.66c30.22,16.29,48.62,51.18,44.46,84.62-5.15,41.37-41.61,75-83.49,76.28-24.31.72-48.65.26-73,.39-11.06.06-9.32-1.07-9.67,9.58-.13,3.92,1.13,5.23,5.13,5.16C230.31,358.23,243.48,358.36,256.64,358.36Zm-15.39-45.13h-52c-6.47,0-6.47,0-6.49,6.64a22.24,22.24,0,0,1,0,2.5c-.51,4.38,1.43,5.82,5.76,5.77,15.5-.18,31,.12,46.49-.09,21.48-.3,43,1,64.45-.73,40.71-3.28,70.64-43.51,62.29-83.48-7.07-33.84-35.8-57.26-70.81-57.43-32.83-.15-65.66-.06-98.49-.07-9.93,0-9.8,0-9.75,9.76,0,3.73,1,5.29,5.11,5.24,17.83-.2,35.66-.26,53.49,0,20,.28,40-1.38,59.9.93,23.86,2.78,45.29,25.61,46.93,49.54,2.35,34.33-22.86,61.32-57.39,61.41C274.24,313.27,257.75,313.23,241.25,313.23ZM146.37,150.86a28,28,0,0,0-28-28.37,28.47,28.47,0,0,0-28.07,28,28.12,28.12,0,0,0,28.17,28.23A27.82,27.82,0,0,0,146.37,150.86Zm79.55,145.85v.2c11.3,0,22.62.27,33.91-.08,9.49-.3,8.18,1.09,8.59-8.75.2-4.91-1.51-6.18-6.26-6.13-23.27.23-46.55.08-69.82.13-10,0-9.49-1.9-9.61,9.61,0,3.55,1,5.12,4.8,5.08C200.32,296.62,213.12,296.71,225.92,296.71Zm-.51-64.35c12.47,0,25-.18,37.42.09,4.51.1,6.09-1.5,5.52-5.77a10.71,10.71,0,0,1,0-3c.73-4.86-1.38-6.3-6.14-6.27-23.62.18-47.24.07-70.86.08-8.66,0-8.66,0-8.59,8.8a3.58,3.58,0,0,1,0,.5c-.59,4.42,1.4,5.73,5.72,5.64C200.79,232.2,213.11,232.36,225.41,232.36Zm14.7,17.74c-6.48,0-13-.06-19.44,0-9.42.1-8.27-1.29-8.68,8.47-.2,4.88,1.47,6.26,6.21,6.17,13.45-.27,26.92,0,40.38-.11,11.22-.08,9.52,1.59,9.81-10.32.08-3.31-1.17-4.32-4.35-4.26C256.07,250.22,248.09,250.12,240.11,250.1Zm-49.95,15a7.39,7.39,0,0,0,7.34-7.29,7.24,7.24,0,1,0-14.47-.22A7.45,7.45,0,0,0,190.16,265.08Zm.21-108.93a6.78,6.78,0,0,0-7.23,7.09c0,4.3,2.8,7.27,7,7.32a7.21,7.21,0,1,0,.2-14.41Zm.23,187.69a7.26,7.26,0,0,0-.66,14.49,7.25,7.25,0,0,0,.66-14.49Z"/><path class="cls-2" d="M513.24,1.25q-252.68,0-505.36,0C.3,1.27,1.26.3,1.26,7.88q0,252.68,0,505.36c-2.07-.9-.93-2.7-.94-4-.09-20.66-.06-41.31-.06-62Q.24,225.89.15,4.49C.14.89.89.15,4.49.15Q256.87.32,509.25.31C510.54.31,512.34-.82,513.24,1.25Z"/><path class="cls-3" d="M256.64,358.36c-13.16,0-26.33-.13-39.49.09-4,.07-5.25-1.24-5.13-5.16.35-10.65-1.39-9.52,9.67-9.58,24.32-.13,48.66.33,73-.39C336.54,342.08,373,308.4,378.16,267c4.16-33.44-14.23-68.33-44.46-84.62a95.41,95.41,0,0,0-46.43-11.66c-22.83.09-45.65,0-68.48,0-6.68,0-6.68-.05-6.7-6.57a25.31,25.31,0,0,0,0-3c-.49-4,1.25-5.17,5.14-5.15q36,.21,72,0a95.08,95.08,0,0,1,32.86,5.31c38.84,14,63.6,40.68,70.1,82,8.22,52.24-27.77,99.66-77.32,111.83a104.62,104.62,0,0,1-26.2,3.16C278,358.27,267.3,358.36,256.64,358.36Z"/><path class="cls-3" d="M241.25,313.23c16.5,0,33,0,49.49,0,34.53-.09,59.74-27.09,57.39-61.41-1.64-23.93-23.07-46.77-46.93-49.54-19.91-2.32-39.93-.66-59.9-.93-17.83-.25-35.66-.19-53.49,0-4.11,0-5.09-1.51-5.11-5.24-.05-9.75-.18-9.77,9.75-9.76,32.83,0,65.66-.08,98.49.07,35,.16,63.74,23.58,70.81,57.43,8.35,40-21.59,80.2-62.29,83.48-21.45,1.73-43,.43-64.45.73-15.49.22-31-.08-46.49.09-4.33,0-6.27-1.39-5.76-5.77a22.24,22.24,0,0,0,0-2.5c0-6.62,0-6.64,6.49-6.64Q215.25,313.22,241.25,313.23Z"/><path class="cls-2" d="M146.37,150.86a27.82,27.82,0,0,1-27.93,27.82,28.12,28.12,0,0,1-28.17-28.23,28.47,28.47,0,0,1,28.07-28A28,28,0,0,1,146.37,150.86Z"/><path class="cls-3" d="M225.92,296.71c-12.8,0-25.6-.09-38.39.06-3.78,0-4.83-1.53-4.8-5.08.12-11.51-.38-9.58,9.61-9.61,23.28-.05,46.55.09,69.82-.13,4.75,0,6.46,1.23,6.26,6.13-.41,9.84.9,8.45-8.59,8.75-11.29.35-22.61.08-33.91.08Z"/><path class="cls-3" d="M225.41,232.36c-12.31,0-24.62-.16-36.92.09-4.32.08-6.31-1.22-5.72-5.64a3.58,3.58,0,0,0,0-.5c-.07-8.78-.07-8.8,8.59-8.8,23.62,0,47.24.1,70.86-.08,4.75,0,6.87,1.41,6.14,6.27a10.71,10.71,0,0,0,0,3c.58,4.27-1,5.87-5.52,5.77C250.37,232.18,237.89,232.36,225.41,232.36Z"/><path class="cls-3" d="M412.54,177.15c-30.93-42.22-73.55-62.1-125.4-62.75-29.16-.37-58.32-.09-87.48-.09-3.83,0-7.66.12-11.49.13-4.06,0-6.17,1.69-6,6.05s0,9,0,13.5c0,7,.34,7.37,7.38,7.38q48,0,96,.09c26.22.06,50.77,6.19,72.83,20.76,42.54,28.09,61.85,76.9,49,123.59-14,51.09-63.42,87.27-118.38,86.94-30.16-.18-60.32,0-90.48,0-3.66,0-7.33-.19-11-.08-3.49.11-5.55,1.71-5.42,5.6.19,5.32.15,10.66.21,16q0,1,0,2l.74,1.32c1.43,2.91,4.18,2.27,6.55,2.27,33.17.06,66.33.21,99.5,0,10.42-.08,20.94-.3,31.05-3.54,19.73-3.16,37.63-11,54-22.1,37.14-25.17,59.15-60,63.67-104.75C441.37,235.67,432.57,204.5,412.54,177.15Z"/><path class="cls-2" d="M240.11,250.11c8,0,16,.11,23.93,0,3.19-.06,4.43.94,4.35,4.26-.28,11.91,1.42,10.23-9.81,10.32-13.46.1-26.92-.16-40.38.11-4.74.1-6.42-1.29-6.21-6.17.41-9.76-.74-8.36,8.68-8.47C227.15,250,233.63,250.1,240.11,250.11Z"/><path class="cls-3" d="M135.42,218.64q-16.49-.08-33,0c-8.92,0-11.32,2.43-11.32,11.21q0,74,0,147.93c0,4.83.14,9.65.22,14.48.22,5.19,3.58,7.48,8.13,7.57q19.21.36,38.43,0c4.61-.08,7.79-2.53,8.21-7.57.07-1.5.19-3,.19-4.49q0-79.21,0-158.42C146.31,221.33,143.64,218.68,135.42,218.64Z"/><path class="cls-3" d="M190.16,265.08a7.45,7.45,0,0,1-7.13-7.51,7.24,7.24,0,1,1,14.47.22A7.39,7.39,0,0,1,190.16,265.08Z"/><path class="cls-3" d="M190.37,156.14a7.21,7.21,0,1,1-.2,14.41c-4.22-.05-7.07-3-7-7.32A6.78,6.78,0,0,1,190.37,156.14Z"/><path class="cls-3" d="M190.61,343.83a7.25,7.25,0,0,1-.66,14.49,7.26,7.26,0,0,1,.66-14.49Z"/><path class="cls-2" d="M182.41,396.27l.74,1.32Z"/></g></g></svg>