<svg xmlns="http://www.w3.org/2000/svg" xmlns:xlink="http://www.w3.org/1999/xlink" viewBox="0 0 1017.19 363.48"><defs><style>.cls-1{opacity:0.25;}.cls-11,.cls-12,.cls-13,.cls-14,.cls-15,.cls-16,.cls-17,.cls-19,.cls-2,.cls-20,.cls-21,.cls-22,.cls-23,.cls-25,.cls-26,.cls-27,.cls-28,.cls-29,.cls-4,.cls-40,.cls-41,.cls-42,.cls-43,.cls-45,.cls-5,.cls-6,.cls-7,.cls-8,.cls-9{fill:none;}.cls-2,.cls-32,.cls-43{stroke:#0b4f6c;}.cls-11,.cls-12,.cls-13,.cls-14,.cls-15,.cls-16,.cls-17,.cls-19,.cls-2,.cls-20,.cls-21,.cls-22,.cls-23,.cls-25,.cls-26,.cls-27,.cls-28,.cls-32,.cls-33,.cls-34,.cls-4,.cls-40,.cls-41,.cls-42,.cls-43,.cls-44,.cls-45,.cls-5,.cls-6,.cls-7,.cls-8,.cls-9{stroke-linecap:round;}.cls-11,.cls-12,.cls-13,.cls-14,.cls-15,.cls-16,.cls-17,.cls-19,.cls-2,.cls-20,.cls-21,.cls-22,.cls-23,.cls-25,.cls-26,.cls-27,.cls-28,.cls-32,.cls-33,.cls-34,.cls-4,.cls-40,.cls-41,.cls-42,.cls-43,.cls-44,.cls-5,.cls-6,.cls-7,.cls-8,.cls-9{stroke-linejoin:round;}.cls-2,.cls-33,.cls-34,.cls-40,.cls-41,.cls-42,.cls-43{stroke-width:2px;}.cls-3{fill:url(#radial-gradient);}.cls-4{stroke:url(#linear-gradient);}.cls-5{stroke:url(#linear-gradient-2);}.cls-6{stroke:url(#linear-gradient-3);}.cls-7{stroke:url(#linear-gradient-4);}.cls-8{stroke:url(#linear-gradient-5);}.cls-9{stroke:url(#linear-gradient-6);}.cls-10{fill:url(#radial-gradient-2);}.cls-11{stroke:url(#linear-gradient-7);}.cls-12{stroke:url(#linear-gradient-8);}.cls-13{stroke:url(#linear-gradient-9);}.cls-14{stroke:url(#linear-gradient-10);}.cls-15{stroke:url(#linear-gradient-11);}.cls-16{stroke:url(#linear-gradient-12);}.cls-17{stroke:url(#linear-gradient-13);}.cls-18{fill:url(#radial-gradient-3);}.cls-19{stroke:url(#linear-gradient-14);}.cls-20{stroke:url(#linear-gradient-15);}.cls-21{stroke:url(#linear-gradient-16);}.cls-22{stroke:url(#linear-gradient-17);}.cls-23{stroke:url(#linear-gradient-18);}.cls-24{fill:url(#radial-gradient-4);}.cls-25{stroke:url(#linear-gradient-19);}.cls-26{stroke:url(#linear-gradient-20);}.cls-27{stroke:url(#linear-gradient-21);}.cls-28{stroke:url(#linear-gradient-22);}.cls-29,.cls-30,.cls-31,.cls-40,.cls-41,.cls-42{stroke:#4b9fa3;}.cls-29,.cls-30,.cls-31,.cls-45{stroke-miterlimit:10;}.cls-30{fill:#757575;}.cls-31,.cls-39{fill:#4b9fa3;}.cls-32,.cls-33,.cls-36,.cls-38{fill:#0b4f6c;}.cls-32,.cls-44{stroke-width:3px;}.cls-33,.cls-34,.cls-45{stroke:#fff;}.cls-34,.cls-37{fill:#fff;}.cls-35,.cls-44{fill:#fb0;}.cls-37{font-size:29.4px;font-family:Roboto-Bold, Roboto;font-weight:700;}.cls-38{font-size:13.86px;font-family:Roboto-Black, Roboto;}.cls-41{stroke-dasharray:4.05 6.07;}.cls-42{stroke-dasharray:3.95 5.92;}.cls-43{stroke-dasharray:4 6;}.cls-44{stroke:#fb0;}</style><radialGradient id="radial-gradient" cx="641.11" cy="173.66" r="104.41" gradientUnits="userSpaceOnUse"><stop offset="0.51" stop-color="#f8f8f8"/><stop offset="1" stop-color="#f8f8f8" stop-opacity="0"/></radialGradient><linearGradient id="linear-gradient" x1="2033.04" y1="8334.4" x2="2055.62" y2="8334.4" gradientTransform="translate(-7693.29 2217.99) rotate(-90)" gradientUnits="userSpaceOnUse"><stop offset="0" stop-color="#f8f8f8"/><stop offset="0.5" stop-color="#fb0"/><stop offset="1" stop-color="#f8f8f8"/></linearGradient><linearGradient id="linear-gradient-2" x1="2017.44" y1="8334.4" x2="2071.22" y2="8334.4" xlink:href="#linear-gradient"/><linearGradient id="linear-gradient-3" x1="2001.83" y1="8334.4" x2="2086.83" y2="8334.4" xlink:href="#linear-gradient"/><linearGradient id="linear-gradient-4" x1="1986.23" y1="8334.4" x2="2102.43" y2="8334.4" xlink:href="#linear-gradient"/><linearGradient id="linear-gradient-5" x1="1970.63" y1="8334.4" x2="2118.03" y2="8334.4" xlink:href="#linear-gradient"/><linearGradient id="linear-gradient-6" x1="1955.03" y1="8334.4" x2="2133.64" y2="8334.4" xlink:href="#linear-gradient"/><radialGradient id="radial-gradient-2" cx="151.24" cy="168.45" r="119.69" xlink:href="#radial-gradient"/><linearGradient id="linear-gradient-7" x1="2038.25" y1="7844.54" x2="2060.83" y2="7844.54" gradientTransform="translate(-7693.29 2217.99) rotate(-90)" gradientUnits="userSpaceOnUse"><stop offset="0" stop-color="#fafafa"/><stop offset="0.5" stop-color="#4b9fa3"/><stop offset="1" stop-color="#fafafa"/></linearGradient><linearGradient id="linear-gradient-8" x1="2022.64" y1="7844.54" x2="2076.43" y2="7844.54" xlink:href="#linear-gradient-7"/><linearGradient id="linear-gradient-9" x1="2007.04" y1="7844.54" x2="2092.03" y2="7844.54" xlink:href="#linear-gradient-7"/><linearGradient id="linear-gradient-10" x1="1991.44" y1="7844.54" x2="2107.64" y2="7844.54" xlink:href="#linear-gradient-7"/><linearGradient id="linear-gradient-11" x1="1975.84" y1="7844.54" x2="2123.24" y2="7844.54" xlink:href="#linear-gradient-7"/><linearGradient id="linear-gradient-12" x1="1960.23" y1="7844.54" x2="2138.84" y2="7844.54" xlink:href="#linear-gradient-7"/><linearGradient id="linear-gradient-13" x1="1944.63" y1="7844.54" x2="2154.45" y2="7844.54" xlink:href="#linear-gradient-7"/><radialGradient id="radial-gradient-3" cx="-355.36" cy="-47.77" r="94.78" gradientTransform="translate(294.66 546.63) rotate(90)" xlink:href="#radial-gradient"/><linearGradient id="linear-gradient-14" x1="2254.48" y1="7332.54" x2="2277.06" y2="7332.54" gradientTransform="translate(-7333.21 443.17) rotate(-74.72)" xlink:href="#linear-gradient-7"/><linearGradient id="linear-gradient-15" x1="2238.87" y1="7324.73" x2="2292.66" y2="7324.73" gradientTransform="translate(-7333.21 443.17) rotate(-74.72)" xlink:href="#linear-gradient-7"/><linearGradient id="linear-gradient-16" x1="2223.27" y1="7316.93" x2="2308.26" y2="7316.93" gradientTransform="translate(-7333.21 443.17) rotate(-74.72)" xlink:href="#linear-gradient-7"/><linearGradient id="linear-gradient-17" x1="2207.67" y1="7309.13" x2="2323.87" y2="7309.13" gradientTransform="translate(-7333.21 443.17) rotate(-74.72)" xlink:href="#linear-gradient-7"/><linearGradient id="linear-gradient-18" x1="2192.06" y1="7301.33" x2="2339.47" y2="7301.33" gradientTransform="translate(-7333.21 443.17) rotate(-74.72)" xlink:href="#linear-gradient-7"/><radialGradient id="radial-gradient-4" cx="95.26" cy="-262.96" r="73.89" gradientTransform="translate(550.08 110.29) rotate(90)" xlink:href="#radial-gradient"/><linearGradient id="linear-gradient-19" x1="2469.66" y1="7783.16" x2="2492.24" y2="7783.16" gradientTransform="translate(-7348.41 661.14) rotate(-75.53)" gradientUnits="userSpaceOnUse"><stop offset="0" stop-color="#fff"/><stop offset="0.5" stop-color="#fb0"/><stop offset="1" stop-color="#fff"/></linearGradient><linearGradient id="linear-gradient-20" x1="2454.06" y1="7775.36" x2="2507.84" y2="7775.36" gradientTransform="translate(-7348.41 661.14) rotate(-75.53)" gradientUnits="userSpaceOnUse"><stop offset="0" stop-color="#fefefe"/><stop offset="0.5" stop-color="#fb0"/><stop offset="1" stop-color="#fefefe"/></linearGradient><linearGradient id="linear-gradient-21" x1="2438.45" y1="7767.56" x2="2523.45" y2="7767.56" gradientTransform="translate(-7348.41 661.14) rotate(-75.53)" gradientUnits="userSpaceOnUse"><stop offset="0" stop-color="#fdfdfd"/><stop offset="0.5" stop-color="#fb0"/><stop offset="1" stop-color="#fdfdfd"/></linearGradient><linearGradient id="linear-gradient-22" x1="2422.85" y1="7759.76" x2="2539.05" y2="7759.76" xlink:href="#linear-gradient-21"/></defs><title>Asset 5</title><g id="Layer_2" data-name="Layer 2"><g id="Layer_4" data-name="Layer 4"><g class="cls-1"><polygon class="cls-2" points="456.56 153.05 883.27 153.05 906.32 198.17 1016.19 198.17 914.17 1 400.64 1 456.56 153.05"/><polygon class="cls-2" points="400.64 1 313.83 158.93 313.83 169.72 324.13 169.72 324.13 158.93 400.64 20.62 448.71 158.93 879.35 158.93 902.89 207.49 1016.19 207.49 1016.19 198.17 914.17 1 400.64 1"/><polygon class="cls-2" points="400.64 20.62 412.1 53.58 349.63 158.93 349.63 169.72 324.13 169.72 324.13 158.93 400.64 20.62"/><line class="cls-2" x1="324.13" y1="158.93" x2="349.63" y2="158.93"/><polygon class="cls-2" points="349.63 169.72 349.63 320.94 414.37 343.35 427.62 343.35 479.61 362.48 992.15 362.48 992.15 207.49 902.89 207.49 879.35 158.93 448.71 158.93 412.1 53.58 349.63 158.93 349.63 169.72"/><polygon class="cls-2" points="902.89 208.47 902.89 362.48 909.26 362.48 909.26 208.03 902.89 208.47"/><polyline class="cls-2" points="414.37 158.93 427.62 158.93 427.62 343.35 414.37 343.35 414.37 158.93 448.71 158.93"/><polygon class="cls-2" points="427.62 333.79 479.61 350.96 479.61 362.48 427.62 343.35 427.62 333.79"/><polygon class="cls-2" points="479.61 350.96 902.89 351.94 902.89 362.48 479.61 362.48 479.61 350.96"/><polygon class="cls-2" points="902.89 351.94 811.99 320.94 427.62 320.94 427.62 333.79 479.61 350.96 902.89 351.94"/><polygon class="cls-2" points="879.35 158.93 902.89 207.49 902.89 351.94 811.99 320.94 811.99 158.93 879.35 158.93"/><polyline class="cls-2" points="811.99 158.93 427.62 158.93 427.62 320.94 811.99 320.94"/><line class="cls-2" x1="349.63" y1="320.94" x2="1" y2="320.94"/></g><circle class="cls-3" cx="641.11" cy="173.66" r="104.41"/><circle class="cls-4" cx="641.11" cy="173.66" r="10.79"/><circle class="cls-5" cx="641.11" cy="173.66" r="26.39"/><circle class="cls-6" cx="641.11" cy="173.66" r="42"/><circle class="cls-7" cx="641.11" cy="173.66" r="57.6"/><circle class="cls-8" cx="641.11" cy="173.66" r="73.2"/><circle class="cls-9" cx="641.11" cy="173.66" r="88.81"/><circle class="cls-10" cx="151.24" cy="168.45" r="119.69"/><circle class="cls-11" cx="151.24" cy="168.45" r="10.79"/><circle class="cls-12" cx="151.24" cy="168.45" r="26.39"/><circle class="cls-13" cx="151.24" cy="168.45" r="42"/><circle class="cls-14" cx="151.24" cy="168.45" r="57.6"/><circle class="cls-15" cx="151.24" cy="168.45" r="73.2"/><circle class="cls-16" cx="151.24" cy="168.45" r="88.81"/><circle class="cls-17" cx="151.24" cy="168.45" r="104.41"/><circle class="cls-18" cx="342.43" cy="191.27" r="94.78" transform="translate(67.68 471.19) rotate(-74.72)"/><path class="cls-19" d="M339.59,201.68a10.79,10.79,0,0,1,5.69-20.82"/><path class="cls-20" d="M335.48,216.73a26.39,26.39,0,1,1,13.91-50.92"/><path class="cls-21" d="M331.36,231.78a42,42,0,1,1,22.13-81"/><path class="cls-22" d="M327.25,246.84a57.6,57.6,0,0,1,30.36-111.13"/><path class="cls-23" d="M323.14,261.89a73.2,73.2,0,0,1,38.58-141.23"/><circle class="cls-24" cx="813.04" cy="205.55" r="73.89" transform="translate(410.8 941.41) rotate(-75.53)"/><path class="cls-25" d="M810.34,216a10.79,10.79,0,0,1,5.39-20.9"/><path class="cls-26" d="M806.44,231.11A26.39,26.39,0,1,1,819.63,180"/><path class="cls-27" d="M802.54,246.22a42,42,0,1,1,21-81.33"/><path class="cls-28" d="M798.64,261.33a57.6,57.6,0,0,1,28.79-111.54"/><polyline class="cls-29" points="109.53 320.49 151.24 169.11 192.96 320.49"/><line class="cls-30" x1="109.53" y1="320.48" x2="172.08" y2="244.71"/><line class="cls-30" x1="192.96" y1="320.48" x2="130.41" y2="244.71"/><line class="cls-30" x1="109.53" y1="320.48" x2="172.08" y2="244.71"/><line class="cls-30" x1="192.96" y1="320.48" x2="130.41" y2="244.71"/><line class="cls-30" x1="130.41" y1="244.71" x2="161.68" y2="206.87"/><line class="cls-30" x1="172.08" y1="244.71" x2="140.84" y2="206.87"/><line class="cls-30" x1="130.41" y1="244.71" x2="161.68" y2="206.87"/><line class="cls-30" x1="172.08" y1="244.71" x2="140.84" y2="206.87"/><line class="cls-30" x1="140.84" y1="206.87" x2="156.46" y2="187.98"/><line class="cls-30" x1="161.68" y1="206.87" x2="146.04" y2="188.01"/><circle class="cls-31" cx="151.24" cy="169.11" r="3.98"/><path class="cls-32" d="M485.42,265h18.23a4,4,0,0,1,4,4v30.44a4,4,0,0,1-4,4H484.09a2.66,2.66,0,0,1-2.66-2.66V269A4,4,0,0,1,485.42,265Z" transform="translate(778.78 -210.3) rotate(90)"/><rect class="cls-33" x="486.54" y="271.74" width="16" height="25" rx="0.93" ry="0.93" transform="translate(778.78 -210.3) rotate(90)"/><line class="cls-34" x1="499.96" y1="281.83" x2="499.96" y2="286.65"/><line class="cls-34" x1="494.37" y1="281.83" x2="494.37" y2="286.65"/><line class="cls-34" x1="488.78" y1="281.83" x2="488.78" y2="286.65"/><path class="cls-31" d="M363.71,200.41l-19.9-4.09a2.16,2.16,0,0,1-2-2.32v-4.13a2.16,2.16,0,0,1,2-2.32l19.9-4.09a2.16,2.16,0,0,1,2,2.32v12.31A2.16,2.16,0,0,1,363.71,200.41Z"/><rect class="cls-31" x="363.35" y="189.05" width="9.34" height="4.21"/><path class="cls-35" d="M848.09,243.34c-.48-2.14-1.9-9.16-2.14-10.23s-1.55-6.43-1.55-7.5a3.47,3.47,0,0,0-1.19-2.86c-1-.83-8.57-5.47-9.28-6.19s-3.45-2.5-3.57-3.09.12-1.22-.06-1.79a12.66,12.66,0,0,0-.78-1.36,3.53,3.53,0,0,1-.24-1.13c0-.12-.25-1.79-.22-1.79.88-.2,1.2-.52,1.26-1.4.1-1.6.05-3.19.05-4.79,0-.11.51-.48.6-.59,1.31-1.64-.77-3.28-1.83-4.43-1.51-1.64-2.44-3.16-4.76-3.23-3-.09-7.41,2.48-7.7,5.59-.09,1,.59,1.57.86,2.44a5.46,5.46,0,0,1,.1,1.64v2.75h-2.74c-.85,0-1.85-.28-2.53.4a30.45,30.45,0,0,0-2.21,3.08c-.83,1.1-1.39,2.32-2.13,3.45a17.13,17.13,0,0,1-3.1,2.77,41.13,41.13,0,0,0-3.26,3.1c-1.4,1.52-2.41,3.3-3.66,4.94,0,0-4,5.24-3.81,6.55s.48,3.21,3.09,3.33,7.14-1.67,7.14-1.67c2.44-1,4.28-2.94,7.08-3.27,1-.12,1,0,1,.93s-.07,1.71-.1,2.56q-.06,2.46,0,4.91a64.69,64.69,0,0,0,1.19,7.78,15.55,15.55,0,0,1,.2,4c-.13,1.18-1.13,1.35-1.46,2.39a2.91,2.91,0,0,0,.79,3.09c1.09,1.07,1.13,3.93-.08,4.76a6.19,6.19,0,0,0-2.28,5c0,2.26.12,6.31,0,6.9s-1.43,23.21-1.43,23.21-.24,9.16,0,13.57S811,324.74,811,324.74l-7.26,7.62s-1.9,1.81-.83,2.57,5.12,1.24,6.43,1,4.64-4.76,6.07-5.36,4-1.19,3.93-1.79.36-22,0-25.59-1.55-7.38-1-9.76,5.12-14.88,5.12-14.88,1-2,1.67-.71,3.33,16.66,3.33,16.66v36.42a5.78,5.78,0,0,0,1.67.48s.24,7,1.55,8.69,4.88,1.9,5.83,1.55a3.91,3.91,0,0,0,1.79-3.69,19.81,19.81,0,0,0-2.38-5.24,9.47,9.47,0,0,1-1-1.43l1.07-.48s.6-4.52.6-6.07-.6-24.28-.6-25.59.71-16.3.71-16.3l1-9a5.25,5.25,0,0,0,1.31-1.43c.36-.71.48-6.19.71-7.26a13.7,13.7,0,0,1,3.45-4.88c1.31-1.07,3.57-9.4,3.93-10.71A15.33,15.33,0,0,0,848.09,243.34Zm-34-35.7s2.38-.4,2.54.71a6.2,6.2,0,0,1,0,1.9h-2.54Zm5.12,7.5a8.16,8.16,0,0,1-3.57,1.55c-1.19,0-2.51,0-3.75,0s-1.13-.27-1.13-1.51l1.19-.83,1.43-.83a10.76,10.76,0,0,1,2.86,0c1,.24,1-.36,1.67,0s-.24-3.21-.24-3.21l1.31.52a17.68,17.68,0,0,1,1.43,2C820.84,213.58,819.65,214.66,819.17,215.13Zm21.42,35.58a25.62,25.62,0,0,0-1.25,4.4c-.06.48-.54,4.52-.54,4.52s-1,.48-1.43,0a3,3,0,0,1-.71-1.67,2.57,2.57,0,0,0-.71-1.67c-.6-.59,0-1.43,0-1.78a9.89,9.89,0,0,1,1.43-2l.71-8.57s-.6-3.45,0-3.81,1.9.71,2.5,2.86a27.3,27.3,0,0,1,.71,5.12A10.83,10.83,0,0,1,840.59,250.71Z"/><circle class="cls-36" cx="494.54" cy="327.43" r="22.21"/><text class="cls-37" transform="translate(486.82 336.57)">2</text><text class="cls-38" transform="translate(521.24 288.29)">32x</text><circle class="cls-35" cx="588.81" cy="188.16" r="22.21"/><text class="cls-37" transform="translate(581.1 198.29)">3</text><circle class="cls-39" cx="356.38" cy="232.58" r="22.21"/><text class="cls-37" transform="translate(347.68 242.71)">1</text><line class="cls-40" x1="383.11" y1="191.94" x2="385.11" y2="191.94"/><line class="cls-41" x1="391.18" y1="191.94" x2="489.34" y2="191.94"/><polyline class="cls-40" points="492.37 191.94 494.37 191.94 494.37 193.94"/><line class="cls-42" x1="494.37" y1="199.86" x2="494.37" y2="256.13"/><line class="cls-40" x1="494.37" y1="259.09" x2="494.37" y2="261.09"/><polygon class="cls-39" points="486.19 254.46 487.66 253.1 494.37 260.32 501.08 253.1 502.55 254.46 494.37 263.26 486.19 254.46"/><polyline class="cls-43" points="552.27 284.24 630.91 284.24 630.91 205.07"/><polygon class="cls-36" points="639.09 211.7 637.62 213.06 630.91 205.84 624.2 213.06 622.73 211.7 630.91 202.9 639.09 211.7"/><rect class="cls-44" x="620.71" y="182.76" width="20.39" height="14.06"/><line class="cls-44" x1="641.11" y1="182.76" x2="641.11" y2="173.66"/><line class="cls-45" x1="626.5" y1="189.79" x2="635.32" y2="189.79"/><line class="cls-45" x1="350.37" y1="191.94" x2="359.19" y2="191.94"/></g></g></svg>